<svg width="190" height="31" viewBox="0 0 190 31" fill="none" xmlns="http://www.w3.org/2000/svg">
<g clip-path="url(#clip0_1_2)">
<path d="M0 7.75C0 3.46979 3.46979 0 7.75 0H31V23.25C31 27.5302 27.5302 31 23.25 31H0V7.75Z" fill="#1976D2"/>
<path d="M5.8125 5.8125H25.1875V9.6875H5.8125V5.8125Z" fill="white"/>
<path d="M5.8125 13.5625H17.4375V17.4375H5.8125V13.5625Z" fill="white"/>
<path d="M5.8125 21.3125H25.1875V25.1875H5.8125V21.3125Z" fill="white"/>
<path d="M48.464 24.716C47.552 24.716 46.64 24.684 45.728 24.62C44.832 24.572 43.896 24.444 42.92 24.236V8.108C43.688 7.964 44.528 7.86 45.44 7.796C46.352 7.716 47.2 7.676 47.984 7.676C49.04 7.676 50.008 7.756 50.888 7.916C51.784 8.06 52.552 8.316 53.192 8.684C53.832 9.052 54.328 9.54 54.68 10.148C55.048 10.74 55.232 11.476 55.232 12.356C55.232 13.684 54.592 14.732 53.312 15.5C54.368 15.9 55.088 16.444 55.472 17.132C55.856 17.82 56.048 18.596 56.048 19.46C56.048 21.204 55.408 22.516 54.128 23.396C52.864 24.276 50.976 24.716 48.464 24.716ZM46.568 17.252V21.548C46.84 21.58 47.136 21.604 47.456 21.62C47.776 21.636 48.128 21.644 48.512 21.644C49.632 21.644 50.536 21.484 51.224 21.164C51.912 20.844 52.256 20.252 52.256 19.388C52.256 18.62 51.968 18.076 51.392 17.756C50.816 17.42 49.992 17.252 48.92 17.252H46.568ZM46.568 14.396H48.392C49.544 14.396 50.368 14.252 50.864 13.964C51.36 13.66 51.608 13.18 51.608 12.524C51.608 11.852 51.352 11.38 50.84 11.108C50.328 10.836 49.576 10.7 48.584 10.7C48.264 10.7 47.92 10.708 47.552 10.724C47.184 10.724 46.856 10.74 46.568 10.772V14.396ZM63.917 7.676C66.413 7.676 68.325 8.124 69.653 9.02C70.981 9.9 71.645 11.276 71.645 13.148C71.645 14.316 71.373 15.268 70.829 16.004C70.301 16.724 69.533 17.292 68.525 17.708C68.861 18.124 69.213 18.604 69.581 19.148C69.949 19.676 70.309 20.236 70.661 20.828C71.029 21.404 71.381 22.012 71.717 22.652C72.053 23.276 72.365 23.892 72.653 24.5H68.453C68.149 23.956 67.837 23.404 67.517 22.844C67.213 22.284 66.893 21.74 66.557 21.212C66.237 20.684 65.917 20.188 65.597 19.724C65.277 19.244 64.957 18.812 64.637 18.428H62.789V24.5H59.045V8.108C59.861 7.948 60.701 7.836 61.565 7.772C62.445 7.708 63.229 7.676 63.917 7.676ZM64.133 10.868C63.861 10.868 63.613 10.876 63.389 10.892C63.181 10.908 62.981 10.924 62.789 10.94V15.452H63.845C65.253 15.452 66.261 15.276 66.869 14.924C67.477 14.572 67.781 13.972 67.781 13.124C67.781 12.308 67.469 11.732 66.845 11.396C66.237 11.044 65.333 10.868 64.133 10.868ZM86.9388 24.5C86.7628 23.924 86.5628 23.332 86.3388 22.724C86.1308 22.116 85.9228 21.508 85.7148 20.9H79.2348C79.0268 21.508 78.8108 22.116 78.5868 22.724C78.3788 23.332 78.1868 23.924 78.0108 24.5H74.1228C74.7468 22.708 75.3388 21.052 75.8988 19.532C76.4588 18.012 77.0028 16.58 77.5308 15.236C78.0748 13.892 78.6028 12.62 79.1148 11.42C79.6428 10.204 80.1868 9.02 80.7468 7.868H84.3228C84.8668 9.02 85.4028 10.204 85.9308 11.42C86.4588 12.62 86.9868 13.892 87.5148 15.236C88.0588 16.58 88.6108 18.012 89.1708 19.532C89.7308 21.052 90.3228 22.708 90.9468 24.5H86.9388ZM82.4508 11.636C82.3708 11.876 82.2508 12.204 82.0908 12.62C81.9308 13.036 81.7468 13.516 81.5388 14.06C81.3308 14.604 81.0988 15.204 80.8428 15.86C80.6028 16.516 80.3548 17.204 80.0988 17.924H84.8268C84.5708 17.204 84.3228 16.516 84.0828 15.86C83.8428 15.204 83.6108 14.604 83.3868 14.06C83.1788 13.516 82.9948 13.036 82.8348 12.62C82.6748 12.204 82.5468 11.876 82.4508 11.636ZM100.602 10.748C98.8583 10.748 97.5943 11.236 96.8103 12.212C96.0423 13.172 95.6583 14.492 95.6583 16.172C95.6583 16.988 95.7543 17.732 95.9463 18.404C96.1383 19.06 96.4263 19.628 96.8103 20.108C97.1943 20.588 97.6743 20.964 98.2503 21.236C98.8263 21.492 99.4983 21.62 100.266 21.62C100.682 21.62 101.034 21.612 101.322 21.596C101.626 21.58 101.89 21.548 102.114 21.5V15.716H105.858V23.948C105.41 24.124 104.69 24.308 103.698 24.5C102.706 24.708 101.482 24.812 100.026 24.812C98.7783 24.812 97.6423 24.62 96.6183 24.236C95.6103 23.852 94.7463 23.292 94.0263 22.556C93.3063 21.82 92.7463 20.916 92.3463 19.844C91.9623 18.772 91.7703 17.548 91.7703 16.172C91.7703 14.78 91.9863 13.548 92.4183 12.476C92.8503 11.404 93.4423 10.5 94.1943 9.764C94.9463 9.012 95.8263 8.444 96.8343 8.06C97.8583 7.676 98.9463 7.484 100.098 7.484C100.882 7.484 101.586 7.54 102.21 7.652C102.85 7.748 103.394 7.868 103.842 8.012C104.306 8.14 104.682 8.276 104.97 8.42C105.274 8.564 105.49 8.676 105.618 8.756L104.538 11.756C104.026 11.484 103.434 11.252 102.762 11.06C102.106 10.852 101.386 10.748 100.602 10.748ZM120.052 24.5C119.396 23.108 118.748 21.66 118.108 20.156C117.468 18.652 116.86 17.164 116.284 15.692C115.708 14.22 115.172 12.812 114.676 11.468C114.196 10.124 113.78 8.924 113.428 7.868H117.556C117.876 8.828 118.22 9.868 118.588 10.988C118.972 12.092 119.356 13.196 119.74 14.3C120.14 15.404 120.524 16.46 120.892 17.468C121.26 18.476 121.604 19.348 121.924 20.084C122.228 19.348 122.564 18.476 122.932 17.468C123.316 16.46 123.7 15.404 124.084 14.3C124.484 13.196 124.868 12.092 125.236 10.988C125.62 9.868 125.972 8.828 126.292 7.868H130.276C129.908 8.924 129.484 10.124 129.004 11.468C128.524 12.812 127.996 14.22 127.42 15.692C126.844 17.164 126.236 18.652 125.596 20.156C124.956 21.66 124.308 23.108 123.652 24.5H120.052ZM141.994 24.5C141.818 23.924 141.618 23.332 141.394 22.724C141.186 22.116 140.978 21.508 140.77 20.9H134.29C134.082 21.508 133.866 22.116 133.642 22.724C133.434 23.332 133.242 23.924 133.066 24.5H129.178C129.802 22.708 130.394 21.052 130.954 19.532C131.514 18.012 132.058 16.58 132.586 15.236C133.13 13.892 133.658 12.62 134.17 11.42C134.698 10.204 135.242 9.02 135.802 7.868H139.378C139.922 9.02 140.458 10.204 140.986 11.42C141.514 12.62 142.042 13.892 142.57 15.236C143.114 16.58 143.666 18.012 144.226 19.532C144.786 21.052 145.378 22.708 146.002 24.5H141.994ZM137.506 11.636C137.426 11.876 137.306 12.204 137.146 12.62C136.986 13.036 136.802 13.516 136.594 14.06C136.386 14.604 136.154 15.204 135.898 15.86C135.658 16.516 135.41 17.204 135.154 17.924H139.882C139.626 17.204 139.378 16.516 139.138 15.86C138.898 15.204 138.666 14.604 138.442 14.06C138.234 13.516 138.05 13.036 137.89 12.62C137.73 12.204 137.602 11.876 137.506 11.636ZM154.19 24.836C153.022 24.836 152.014 24.676 151.166 24.356C150.318 24.02 149.614 23.564 149.054 22.988C148.51 22.396 148.102 21.7 147.83 20.9C147.574 20.084 147.446 19.188 147.446 18.212V7.868H151.19V17.9C151.19 18.572 151.262 19.148 151.406 19.628C151.566 20.092 151.774 20.476 152.03 20.78C152.302 21.068 152.622 21.276 152.99 21.404C153.374 21.532 153.79 21.596 154.238 21.596C155.15 21.596 155.886 21.316 156.446 20.756C157.022 20.196 157.31 19.244 157.31 17.9V7.868H161.054V18.212C161.054 19.188 160.918 20.084 160.646 20.9C160.374 21.716 159.958 22.42 159.398 23.012C158.838 23.588 158.126 24.036 157.262 24.356C156.398 24.676 155.374 24.836 154.19 24.836ZM175.766 21.284V24.5H164.654V7.868H168.398V21.284H175.766ZM188.639 7.868V11.06H183.623V24.5H179.879V11.06H174.863V7.868H188.639Z" fill="black"/>
</g>
<defs>
<clipPath id="clip0_1_2">
<rect width="190" height="31" fill="white"/>
</clipPath>
</defs>
</svg>
